<?xml version="1.0" encoding="utf-8"?>
<!-- Generator: Adobe Illustrator 16.0.0, SVG Export Plug-In . SVG Version: 6.00 Build 0)  -->
<!DOCTYPE svg PUBLIC "-//W3C//DTD SVG 1.1//EN" "http://www.w3.org/Graphics/SVG/1.1/DTD/svg11.dtd">
<svg version="1.1" id="Capa_1" xmlns="http://www.w3.org/2000/svg" xmlns:xlink="http://www.w3.org/1999/xlink" x="0px" y="0px"
	 width="125.564px" height="178.58px" viewBox="0 0 125.564 178.58" enable-background="new 0 0 125.564 178.58"
	 xml:space="preserve">
<g>
	<g>
		<g>
			<path fill="#FFFFFF" d="M62.783-0.001c-34.618,0-62.782,28.164-62.782,62.782c0,11.696,3.24,23.11,9.371,33.014l49.837,80.311
				c0.955,1.539,2.637,2.476,4.446,2.476c0.014,0,0.027,0,0.041,0c1.824-0.017,3.51-0.979,4.447-2.544l48.564-81.089
				c5.793-9.693,8.855-20.816,8.855-32.165C125.567,28.163,97.402-0.001,62.783-0.001z M107.732,89.574l-44.155,73.723
				L18.265,90.281c-5.104-8.242-7.871-17.751-7.871-27.5c0-28.849,23.54-52.388,52.391-52.388c28.849,0,52.354,23.54,52.354,52.388
				C115.136,72.241,112.552,81.507,107.732,89.574z"/>
		</g>
	</g>
	<g>
		<g>
			<path fill="#FFFFFF" d="M62.783,31.39c-17.312,0-31.394,14.082-31.394,31.391c0,17.198,13.854,31.391,31.394,31.391
				c17.755,0,31.391-14.381,31.391-31.391C94.174,45.472,80.092,31.39,62.783,31.39z M62.783,83.778
				c-11.602,0-20.997-9.429-20.997-20.997c0-11.54,9.457-20.997,20.997-20.997c11.539,0,20.962,9.458,20.962,20.997
				C83.745,74.181,74.568,83.778,62.783,83.778z"/>
		</g>
	</g>
</g>
</svg>
