<?xml version="1.0" encoding="utf-8"?>
<!-- Generator: Adobe Illustrator 16.0.0, SVG Export Plug-In . SVG Version: 6.00 Build 0)  -->
<!DOCTYPE svg PUBLIC "-//W3C//DTD SVG 1.1//EN" "http://www.w3.org/Graphics/SVG/1.1/DTD/svg11.dtd">
<svg version="1.1" id="Layer_1" xmlns="http://www.w3.org/2000/svg" xmlns:xlink="http://www.w3.org/1999/xlink" x="0px" y="0px"
	 width="178.58px" height="178.58px" viewBox="307.56 0 178.58 178.58" enable-background="new 307.56 0 178.58 178.58"
	 xml:space="preserve">
<g>
	<g>
		<path fill="#2D2D2D" d="M485.051,172.229l-54.337-54.337C442,105.361,448.936,88.84,448.936,70.688
			C448.936,31.711,417.225,0,378.248,0c-38.977,0-70.688,31.711-70.688,70.688s31.711,70.688,70.688,70.688
			c18.152,0,34.674-6.936,47.205-18.223l54.337,54.337c0.727,0.727,1.679,1.09,2.631,1.09c0.951,0,1.903-0.363,2.63-1.09
			C486.504,176.036,486.504,173.683,485.051,172.229z M378.248,133.935c-34.871,0-63.247-28.371-63.247-63.247
			c0-34.875,28.376-63.247,63.247-63.247c34.872,0,63.248,28.372,63.248,63.247S413.12,133.935,378.248,133.935z"/>
	</g>
</g>
</svg>
