<?xml version="1.0" encoding="utf-8"?>
<!-- Generator: Adobe Illustrator 16.0.0, SVG Export Plug-In . SVG Version: 6.00 Build 0)  -->
<!DOCTYPE svg PUBLIC "-//W3C//DTD SVG 1.1//EN" "http://www.w3.org/Graphics/SVG/1.1/DTD/svg11.dtd">
<svg version="1.1" id="Layer_1" xmlns="http://www.w3.org/2000/svg" xmlns:xlink="http://www.w3.org/1999/xlink" x="0px" y="0px"
	 width="512px" height="512px" viewBox="0 0 512 512" enable-background="new 0 0 512 512" xml:space="preserve">
<linearGradient id="SVGID_1_" gradientUnits="userSpaceOnUse" x1="21.7375" y1="588.1436" x2="470.6717" y2="139.2094" gradientTransform="matrix(1 0 0 1 1.7002 -99.5801)">
	<stop  offset="0" style="stop-color:#00C565"/>
	<stop  offset="0.518" style="stop-color:#00D7DF"/>
	<stop  offset="1" style="stop-color:#00C565"/>
</linearGradient>
<path fill="url(#SVGID_1_)" d="M431.36,80.64c-96.333-97.364-253.355-98.2-350.72-1.867c-97.365,96.333-98.2,253.356-1.867,350.72
	c0.619,0.625,1.241,1.248,1.867,1.867c96.333,97.362,253.354,98.198,350.72,1.864c97.364-96.333,98.199-253.355,1.866-350.72
	C432.607,81.88,431.985,81.259,431.36,80.64L431.36,80.64z M420.052,420.05c-90.604,90.604-237.498,90.604-328.102,0
	c-90.603-90.603-90.603-237.498,0-328.1c90.604-90.603,237.498-90.603,328.102,0C510.652,182.552,510.652,329.447,420.052,420.05z"
	/>
<linearGradient id="SVGID_2_" gradientUnits="userSpaceOnUse" x1="-2.0872" y1="564.3164" x2="446.8374" y2="115.3928" gradientTransform="matrix(1 0 0 1 1.7002 -99.5801)">
	<stop  offset="0" style="stop-color:#00C565"/>
	<stop  offset="0.518" style="stop-color:#00D7DF"/>
	<stop  offset="1" style="stop-color:#00C565"/>
</linearGradient>
<path fill="url(#SVGID_2_)" d="M176,464.7c-1.015,0-2.021-0.194-2.963-0.571C87.867,430.146,31.997,347.699,32,256
	c0-4.418,3.582-8,8-8c4.419,0,8,3.582,8,8c-0.005,85.152,51.875,161.715,130.965,193.271c4.104,1.641,6.102,6.296,4.461,10.397
	C182.212,462.706,179.271,464.698,176,464.7L176,464.7z"/>
<linearGradient id="SVGID_3_" gradientUnits="userSpaceOnUse" x1="102.9583" y1="669.3535" x2="551.8669" y2="220.4447" gradientTransform="matrix(1 0 0 1 1.7002 -99.5801)">
	<stop  offset="0" style="stop-color:#00C565"/>
	<stop  offset="0.518" style="stop-color:#00D7DF"/>
	<stop  offset="1" style="stop-color:#00C565"/>
</linearGradient>
<path fill="url(#SVGID_3_)" d="M216.009,476.305c-0.496,0-0.992-0.046-1.48-0.138c-5.557-1.041-11.141-2.309-16.595-3.77
	c-4.282-1.093-6.868-5.446-5.777-9.729c1.091-4.281,5.446-6.867,9.728-5.776c0.062,0.017,0.124,0.032,0.187,0.051
	c5.062,1.354,10.245,2.531,15.405,3.5c4.344,0.808,7.209,4.983,6.4,9.327c-0.705,3.789-4.012,6.537-7.865,6.536v-0.001H216.009z"/>
<linearGradient id="SVGID_4_" gradientUnits="userSpaceOnUse" x1="-73.1501" y1="585.1504" x2="588.5499" y2="-76.5483">
	<stop  offset="0" style="stop-color:#00C565"/>
	<stop  offset="0.518" style="stop-color:#00D7DF"/>
	<stop  offset="1" style="stop-color:#00C565"/>
</linearGradient>
<path fill="url(#SVGID_4_)" d="M347,160H165c-2.761,0-5,2.239-5,5v182c0,2.762,2.239,5,5,5h182c2.762,0,5-2.238,5-5V165
	C352,162.239,349.761,160,347,160z M339.184,334.853c0,2.393-1.94,4.332-4.333,4.332H177.148c-2.393,0-4.333-1.939-4.333-4.332
	V177.148c0-2.393,1.94-4.333,4.333-4.333h157.704c2.393,0,4.333,1.94,4.333,4.333V334.853z"/>
</svg>
